<mxfile host="Electron" modified="2023-12-04T01:00:03.882Z" agent="Mozilla/5.0 (Windows NT 10.0; Win64; x64) AppleWebKit/537.36 (KHTML, like Gecko) draw.io/22.1.2 Chrome/114.0.5735.289 Electron/25.9.4 Safari/537.36" etag="tBjlO7O7EnrJhJargW3T" version="22.1.2" type="device">
  <diagram name="Page-1" id="RM-vGHGo6QqrfC-7CyxL">
    <mxGraphModel dx="1276" dy="606" grid="1" gridSize="10" guides="1" tooltips="1" connect="1" arrows="1" fold="1" page="1" pageScale="1" pageWidth="850" pageHeight="1100" math="0" shadow="0">
      <root>
        <mxCell id="0" />
        <mxCell id="1" parent="0" />
        <mxCell id="ZJuprJjKFpUztYn6lgFH-1" value="" style="rounded=0;whiteSpace=wrap;html=1;" parent="1" vertex="1">
          <mxGeometry x="300" y="80" width="115" height="50" as="geometry" />
        </mxCell>
        <mxCell id="ZJuprJjKFpUztYn6lgFH-2" value="" style="rounded=0;whiteSpace=wrap;html=1;" parent="1" vertex="1">
          <mxGeometry x="40" y="80" width="110" height="50" as="geometry" />
        </mxCell>
        <mxCell id="ZJuprJjKFpUztYn6lgFH-3" value="" style="rounded=0;whiteSpace=wrap;html=1;" parent="1" vertex="1">
          <mxGeometry x="600" y="80" width="115" height="50" as="geometry" />
        </mxCell>
        <mxCell id="ZJuprJjKFpUztYn6lgFH-4" value="" style="rounded=0;whiteSpace=wrap;html=1;" parent="1" vertex="1">
          <mxGeometry x="850" y="80" width="115" height="50" as="geometry" />
        </mxCell>
        <mxCell id="ZJuprJjKFpUztYn6lgFH-5" value="Database" style="text;html=1;strokeColor=none;fillColor=none;align=center;verticalAlign=middle;whiteSpace=wrap;rounded=0;" parent="1" vertex="1">
          <mxGeometry x="870" y="90" width="60" height="30" as="geometry" />
        </mxCell>
        <mxCell id="ZJuprJjKFpUztYn6lgFH-6" value="Web Browser" style="text;html=1;strokeColor=none;fillColor=none;align=center;verticalAlign=middle;whiteSpace=wrap;rounded=0;" parent="1" vertex="1">
          <mxGeometry x="627.5" y="90" width="60" height="30" as="geometry" />
        </mxCell>
        <mxCell id="ZJuprJjKFpUztYn6lgFH-7" value="Student" style="text;html=1;strokeColor=none;fillColor=none;align=center;verticalAlign=middle;whiteSpace=wrap;rounded=0;" parent="1" vertex="1">
          <mxGeometry x="60" y="90" width="60" height="30" as="geometry" />
        </mxCell>
        <mxCell id="ZJuprJjKFpUztYn6lgFH-8" value="Admin" style="text;html=1;strokeColor=none;fillColor=none;align=center;verticalAlign=middle;whiteSpace=wrap;rounded=0;" parent="1" vertex="1">
          <mxGeometry x="320" y="90" width="60" height="30" as="geometry" />
        </mxCell>
        <mxCell id="ZJuprJjKFpUztYn6lgFH-10" value="" style="rounded=0;whiteSpace=wrap;html=1;" parent="1" vertex="1">
          <mxGeometry x="85" y="160" width="20" height="730" as="geometry" />
        </mxCell>
        <mxCell id="ZJuprJjKFpUztYn6lgFH-12" value="" style="rounded=0;whiteSpace=wrap;html=1;" parent="1" vertex="1">
          <mxGeometry x="347.5" y="160" width="20" height="200" as="geometry" />
        </mxCell>
        <mxCell id="ZJuprJjKFpUztYn6lgFH-15" value="" style="rounded=0;whiteSpace=wrap;html=1;" parent="1" vertex="1">
          <mxGeometry x="897.5" y="160" width="20" height="740" as="geometry" />
        </mxCell>
        <mxCell id="ZJuprJjKFpUztYn6lgFH-16" value="" style="rounded=0;whiteSpace=wrap;html=1;" parent="1" vertex="1">
          <mxGeometry x="647.5" y="160" width="20" height="240" as="geometry" />
        </mxCell>
        <mxCell id="ZJuprJjKFpUztYn6lgFH-17" value="" style="endArrow=classic;html=1;rounded=0;" parent="1" edge="1">
          <mxGeometry width="50" height="50" relative="1" as="geometry">
            <mxPoint x="370" y="200" as="sourcePoint" />
            <mxPoint x="640" y="200" as="targetPoint" />
          </mxGeometry>
        </mxCell>
        <mxCell id="ZJuprJjKFpUztYn6lgFH-19" value="" style="endArrow=classic;html=1;rounded=0;" parent="1" edge="1">
          <mxGeometry width="50" height="50" relative="1" as="geometry">
            <mxPoint x="670" y="200" as="sourcePoint" />
            <mxPoint x="890" y="200" as="targetPoint" />
          </mxGeometry>
        </mxCell>
        <mxCell id="ZJuprJjKFpUztYn6lgFH-23" value="" style="endArrow=classic;html=1;rounded=0;entryX=-0.095;entryY=0.085;entryDx=0;entryDy=0;entryPerimeter=0;" parent="1" edge="1">
          <mxGeometry width="50" height="50" relative="1" as="geometry">
            <mxPoint x="370" y="300" as="sourcePoint" />
            <mxPoint x="646" y="300" as="targetPoint" />
          </mxGeometry>
        </mxCell>
        <mxCell id="ZJuprJjKFpUztYn6lgFH-25" value="" style="endArrow=classic;html=1;rounded=0;entryX=-0.075;entryY=0.106;entryDx=0;entryDy=0;entryPerimeter=0;" parent="1" edge="1">
          <mxGeometry width="50" height="50" relative="1" as="geometry">
            <mxPoint x="667.5" y="300" as="sourcePoint" />
            <mxPoint x="893.5" y="300" as="targetPoint" />
          </mxGeometry>
        </mxCell>
        <mxCell id="ZJuprJjKFpUztYn6lgFH-27" value="" style="endArrow=classic;html=1;rounded=0;exitX=1.25;exitY=0.468;exitDx=0;exitDy=0;exitPerimeter=0;" parent="1" edge="1">
          <mxGeometry width="50" height="50" relative="1" as="geometry">
            <mxPoint x="115" y="390.00000000000006" as="sourcePoint" />
            <mxPoint x="645" y="390.04" as="targetPoint" />
          </mxGeometry>
        </mxCell>
        <mxCell id="ZJuprJjKFpUztYn6lgFH-28" value="" style="endArrow=classic;html=1;rounded=0;" parent="1" edge="1">
          <mxGeometry width="50" height="50" relative="1" as="geometry">
            <mxPoint x="675" y="390.04" as="sourcePoint" />
            <mxPoint x="895" y="390.04" as="targetPoint" />
          </mxGeometry>
        </mxCell>
        <mxCell id="ZJuprJjKFpUztYn6lgFH-31" value="" style="endArrow=classic;html=1;rounded=0;" parent="1" edge="1">
          <mxGeometry width="50" height="50" relative="1" as="geometry">
            <mxPoint x="110" y="480" as="sourcePoint" />
            <mxPoint x="640" y="480" as="targetPoint" />
          </mxGeometry>
        </mxCell>
        <mxCell id="ZJuprJjKFpUztYn6lgFH-32" value="" style="rounded=0;whiteSpace=wrap;html=1;" parent="1" vertex="1">
          <mxGeometry x="647.5" y="430" width="20" height="470" as="geometry" />
        </mxCell>
        <mxCell id="ZJuprJjKFpUztYn6lgFH-33" value="" style="endArrow=classic;html=1;rounded=0;" parent="1" edge="1">
          <mxGeometry width="50" height="50" relative="1" as="geometry">
            <mxPoint x="670" y="480" as="sourcePoint" />
            <mxPoint x="890" y="480" as="targetPoint" />
          </mxGeometry>
        </mxCell>
        <mxCell id="ZJuprJjKFpUztYn6lgFH-55" value="" style="endArrow=block;dashed=1;endFill=0;endSize=12;html=1;rounded=0;entryX=0.95;entryY=0.531;entryDx=0;entryDy=0;entryPerimeter=0;" parent="1" edge="1">
          <mxGeometry width="160" relative="1" as="geometry">
            <mxPoint x="891" y="420.43" as="sourcePoint" />
            <mxPoint x="105" y="420.00000000000006" as="targetPoint" />
            <Array as="points">
              <mxPoint x="401" y="420.43" />
            </Array>
          </mxGeometry>
        </mxCell>
        <mxCell id="ZJuprJjKFpUztYn6lgFH-56" value="" style="endArrow=block;dashed=1;endFill=0;endSize=12;html=1;rounded=0;" parent="1" edge="1">
          <mxGeometry width="160" relative="1" as="geometry">
            <mxPoint x="640" y="510" as="sourcePoint" />
            <mxPoint x="110" y="510" as="targetPoint" />
          </mxGeometry>
        </mxCell>
        <mxCell id="ZJuprJjKFpUztYn6lgFH-57" value="" style="endArrow=block;dashed=1;endFill=0;endSize=12;html=1;rounded=0;" parent="1" edge="1">
          <mxGeometry width="160" relative="1" as="geometry">
            <mxPoint x="890" y="510" as="sourcePoint" />
            <mxPoint x="670" y="510" as="targetPoint" />
          </mxGeometry>
        </mxCell>
        <mxCell id="ZJuprJjKFpUztYn6lgFH-65" value="" style="endArrow=block;dashed=1;endFill=0;endSize=12;html=1;rounded=0;entryX=1;entryY=0.75;entryDx=0;entryDy=0;" parent="1" edge="1">
          <mxGeometry width="160" relative="1" as="geometry">
            <mxPoint x="639.5" y="242" as="sourcePoint" />
            <mxPoint x="367.5" y="240" as="targetPoint" />
          </mxGeometry>
        </mxCell>
        <mxCell id="ZJuprJjKFpUztYn6lgFH-66" value="" style="endArrow=block;dashed=1;endFill=0;endSize=12;html=1;rounded=0;" parent="1" edge="1">
          <mxGeometry width="160" relative="1" as="geometry">
            <mxPoint x="890" y="240" as="sourcePoint" />
            <mxPoint x="670" y="240" as="targetPoint" />
          </mxGeometry>
        </mxCell>
        <mxCell id="ZJuprJjKFpUztYn6lgFH-67" value="Admin Login" style="text;html=1;strokeColor=none;fillColor=none;align=center;verticalAlign=middle;whiteSpace=wrap;rounded=0;" parent="1" vertex="1">
          <mxGeometry x="480" y="160" width="90" height="30" as="geometry" />
        </mxCell>
        <mxCell id="ZJuprJjKFpUztYn6lgFH-68" value="Admin Login" style="text;html=1;strokeColor=none;fillColor=none;align=center;verticalAlign=middle;whiteSpace=wrap;rounded=0;" parent="1" vertex="1">
          <mxGeometry x="720" y="160" width="90" height="30" as="geometry" />
        </mxCell>
        <mxCell id="ZJuprJjKFpUztYn6lgFH-69" value="Aknowledgement" style="text;html=1;strokeColor=none;fillColor=none;align=center;verticalAlign=middle;whiteSpace=wrap;rounded=0;" parent="1" vertex="1">
          <mxGeometry x="730" y="210" width="90" height="30" as="geometry" />
        </mxCell>
        <mxCell id="ZJuprJjKFpUztYn6lgFH-71" value="Add Placement Reg form" style="text;html=1;strokeColor=none;fillColor=none;align=center;verticalAlign=middle;whiteSpace=wrap;rounded=0;" parent="1" vertex="1">
          <mxGeometry x="460" y="270" width="150" height="30" as="geometry" />
        </mxCell>
        <mxCell id="ZJuprJjKFpUztYn6lgFH-72" value="Store to database" style="text;html=1;strokeColor=none;fillColor=none;align=center;verticalAlign=middle;whiteSpace=wrap;rounded=0;" parent="1" vertex="1">
          <mxGeometry x="730" y="270" width="110" height="30" as="geometry" />
        </mxCell>
        <mxCell id="ZJuprJjKFpUztYn6lgFH-73" value="" style="endArrow=block;dashed=1;endFill=0;endSize=12;html=1;rounded=0;entryX=1;entryY=0.75;entryDx=0;entryDy=0;" parent="1" edge="1">
          <mxGeometry width="160" relative="1" as="geometry">
            <mxPoint x="639.5" y="352" as="sourcePoint" />
            <mxPoint x="367.5" y="350" as="targetPoint" />
          </mxGeometry>
        </mxCell>
        <mxCell id="ZJuprJjKFpUztYn6lgFH-74" value="" style="endArrow=block;dashed=1;endFill=0;endSize=12;html=1;rounded=0;" parent="1" edge="1">
          <mxGeometry width="160" relative="1" as="geometry">
            <mxPoint x="890" y="350" as="sourcePoint" />
            <mxPoint x="670" y="350" as="targetPoint" />
          </mxGeometry>
        </mxCell>
        <mxCell id="ZJuprJjKFpUztYn6lgFH-75" value="Aknowledgement" style="text;html=1;strokeColor=none;fillColor=none;align=center;verticalAlign=middle;whiteSpace=wrap;rounded=0;" parent="1" vertex="1">
          <mxGeometry x="730" y="320" width="90" height="30" as="geometry" />
        </mxCell>
        <mxCell id="ZJuprJjKFpUztYn6lgFH-76" value="Student Login" style="text;html=1;strokeColor=none;fillColor=none;align=center;verticalAlign=middle;whiteSpace=wrap;rounded=0;" parent="1" vertex="1">
          <mxGeometry x="190" y="360" width="90" height="30" as="geometry" />
        </mxCell>
        <mxCell id="ZJuprJjKFpUztYn6lgFH-77" value="Aknowledgement" style="text;html=1;strokeColor=none;fillColor=none;align=center;verticalAlign=middle;whiteSpace=wrap;rounded=0;" parent="1" vertex="1">
          <mxGeometry x="460" y="390" width="90" height="30" as="geometry" />
        </mxCell>
        <mxCell id="ZJuprJjKFpUztYn6lgFH-80" value="Request Placement Reg form" style="text;html=1;strokeColor=none;fillColor=none;align=center;verticalAlign=middle;whiteSpace=wrap;rounded=0;" parent="1" vertex="1">
          <mxGeometry x="405" y="450" width="185" height="30" as="geometry" />
        </mxCell>
        <mxCell id="ZJuprJjKFpUztYn6lgFH-81" value="Get Reg form" style="text;html=1;strokeColor=none;fillColor=none;align=center;verticalAlign=middle;whiteSpace=wrap;rounded=0;" parent="1" vertex="1">
          <mxGeometry x="425" y="480" width="115" height="30" as="geometry" />
        </mxCell>
        <mxCell id="ZJuprJjKFpUztYn6lgFH-82" value="" style="endArrow=classic;html=1;rounded=0;" parent="1" edge="1">
          <mxGeometry width="50" height="50" relative="1" as="geometry">
            <mxPoint x="110" y="540" as="sourcePoint" />
            <mxPoint x="647.5" y="540" as="targetPoint" />
          </mxGeometry>
        </mxCell>
        <mxCell id="ZJuprJjKFpUztYn6lgFH-83" value="" style="endArrow=classic;html=1;rounded=0;" parent="1" edge="1">
          <mxGeometry width="50" height="50" relative="1" as="geometry">
            <mxPoint x="670" y="540" as="sourcePoint" />
            <mxPoint x="897.5" y="540" as="targetPoint" />
          </mxGeometry>
        </mxCell>
        <mxCell id="ZJuprJjKFpUztYn6lgFH-84" value="Apply for Placement" style="text;html=1;strokeColor=none;fillColor=none;align=center;verticalAlign=middle;whiteSpace=wrap;rounded=0;" parent="1" vertex="1">
          <mxGeometry x="432.5" y="510" width="115" height="30" as="geometry" />
        </mxCell>
        <mxCell id="ZJuprJjKFpUztYn6lgFH-86" value="Apply for Placement" style="text;html=1;strokeColor=none;fillColor=none;align=center;verticalAlign=middle;whiteSpace=wrap;rounded=0;" parent="1" vertex="1">
          <mxGeometry x="720" y="510" width="115" height="30" as="geometry" />
        </mxCell>
        <mxCell id="ZWJlT0OQoJkOd2MEm67g-1" value="" style="rounded=0;whiteSpace=wrap;html=1;" vertex="1" parent="1">
          <mxGeometry x="347.5" y="550" width="20" height="80" as="geometry" />
        </mxCell>
        <mxCell id="ZWJlT0OQoJkOd2MEm67g-2" value="" style="endArrow=classic;html=1;rounded=0;entryX=-0.095;entryY=0.085;entryDx=0;entryDy=0;entryPerimeter=0;" edge="1" parent="1">
          <mxGeometry width="50" height="50" relative="1" as="geometry">
            <mxPoint x="367.5" y="590" as="sourcePoint" />
            <mxPoint x="643.5" y="590" as="targetPoint" />
          </mxGeometry>
        </mxCell>
        <mxCell id="ZWJlT0OQoJkOd2MEm67g-3" value="" style="endArrow=classic;html=1;rounded=0;entryX=-0.075;entryY=0.106;entryDx=0;entryDy=0;entryPerimeter=0;" edge="1" parent="1">
          <mxGeometry width="50" height="50" relative="1" as="geometry">
            <mxPoint x="665" y="590" as="sourcePoint" />
            <mxPoint x="891" y="590" as="targetPoint" />
          </mxGeometry>
        </mxCell>
        <mxCell id="ZWJlT0OQoJkOd2MEm67g-4" value="Add Training Reg form" style="text;html=1;strokeColor=none;fillColor=none;align=center;verticalAlign=middle;whiteSpace=wrap;rounded=0;" vertex="1" parent="1">
          <mxGeometry x="425" y="560" width="162.5" height="30" as="geometry" />
        </mxCell>
        <mxCell id="ZWJlT0OQoJkOd2MEm67g-6" value="" style="endArrow=block;dashed=1;endFill=0;endSize=12;html=1;rounded=0;entryX=1;entryY=0.75;entryDx=0;entryDy=0;" edge="1" parent="1">
          <mxGeometry width="160" relative="1" as="geometry">
            <mxPoint x="639.5" y="612" as="sourcePoint" />
            <mxPoint x="367.5" y="610" as="targetPoint" />
          </mxGeometry>
        </mxCell>
        <mxCell id="ZWJlT0OQoJkOd2MEm67g-7" value="" style="endArrow=block;dashed=1;endFill=0;endSize=12;html=1;rounded=0;" edge="1" parent="1">
          <mxGeometry width="160" relative="1" as="geometry">
            <mxPoint x="895" y="610" as="sourcePoint" />
            <mxPoint x="675" y="610" as="targetPoint" />
          </mxGeometry>
        </mxCell>
        <mxCell id="ZWJlT0OQoJkOd2MEm67g-8" value="Aknowledgement" style="text;html=1;strokeColor=none;fillColor=none;align=center;verticalAlign=middle;whiteSpace=wrap;rounded=0;" vertex="1" parent="1">
          <mxGeometry x="735" y="584" width="90" height="30" as="geometry" />
        </mxCell>
        <mxCell id="ZWJlT0OQoJkOd2MEm67g-9" value="" style="endArrow=classic;html=1;rounded=0;" edge="1" parent="1">
          <mxGeometry width="50" height="50" relative="1" as="geometry">
            <mxPoint x="116.25" y="670" as="sourcePoint" />
            <mxPoint x="646.25" y="670" as="targetPoint" />
          </mxGeometry>
        </mxCell>
        <mxCell id="ZWJlT0OQoJkOd2MEm67g-10" value="" style="endArrow=classic;html=1;rounded=0;" edge="1" parent="1">
          <mxGeometry width="50" height="50" relative="1" as="geometry">
            <mxPoint x="686.25" y="670" as="sourcePoint" />
            <mxPoint x="896.25" y="670" as="targetPoint" />
          </mxGeometry>
        </mxCell>
        <mxCell id="ZWJlT0OQoJkOd2MEm67g-11" value="" style="endArrow=block;dashed=1;endFill=0;endSize=12;html=1;rounded=0;" edge="1" parent="1">
          <mxGeometry width="160" relative="1" as="geometry">
            <mxPoint x="646.25" y="700" as="sourcePoint" />
            <mxPoint x="116.25" y="700" as="targetPoint" />
          </mxGeometry>
        </mxCell>
        <mxCell id="ZWJlT0OQoJkOd2MEm67g-12" value="" style="endArrow=block;dashed=1;endFill=0;endSize=12;html=1;rounded=0;" edge="1" parent="1">
          <mxGeometry width="160" relative="1" as="geometry">
            <mxPoint x="896.25" y="700" as="sourcePoint" />
            <mxPoint x="676.25" y="700" as="targetPoint" />
          </mxGeometry>
        </mxCell>
        <mxCell id="ZWJlT0OQoJkOd2MEm67g-13" value="Request Training Reg form" style="text;html=1;strokeColor=none;fillColor=none;align=center;verticalAlign=middle;whiteSpace=wrap;rounded=0;" vertex="1" parent="1">
          <mxGeometry x="431.25" y="640" width="160" height="30" as="geometry" />
        </mxCell>
        <mxCell id="ZWJlT0OQoJkOd2MEm67g-14" value="Get Reg form" style="text;html=1;strokeColor=none;fillColor=none;align=center;verticalAlign=middle;whiteSpace=wrap;rounded=0;" vertex="1" parent="1">
          <mxGeometry x="431.25" y="670" width="115" height="30" as="geometry" />
        </mxCell>
        <mxCell id="ZWJlT0OQoJkOd2MEm67g-15" value="Request Training Reg form" style="text;html=1;strokeColor=none;fillColor=none;align=center;verticalAlign=middle;whiteSpace=wrap;rounded=0;" vertex="1" parent="1">
          <mxGeometry x="701.25" y="640" width="160" height="30" as="geometry" />
        </mxCell>
        <mxCell id="ZWJlT0OQoJkOd2MEm67g-16" value="" style="endArrow=classic;html=1;rounded=0;" edge="1" parent="1">
          <mxGeometry width="50" height="50" relative="1" as="geometry">
            <mxPoint x="114.5" y="730" as="sourcePoint" />
            <mxPoint x="652" y="730" as="targetPoint" />
          </mxGeometry>
        </mxCell>
        <mxCell id="ZWJlT0OQoJkOd2MEm67g-17" value="" style="endArrow=classic;html=1;rounded=0;" edge="1" parent="1">
          <mxGeometry width="50" height="50" relative="1" as="geometry">
            <mxPoint x="679.5" y="730" as="sourcePoint" />
            <mxPoint x="897" y="730" as="targetPoint" />
          </mxGeometry>
        </mxCell>
        <mxCell id="ZWJlT0OQoJkOd2MEm67g-18" value="Apply for training" style="text;html=1;strokeColor=none;fillColor=none;align=center;verticalAlign=middle;whiteSpace=wrap;rounded=0;" vertex="1" parent="1">
          <mxGeometry x="432" y="700" width="115" height="30" as="geometry" />
        </mxCell>
        <mxCell id="ZWJlT0OQoJkOd2MEm67g-19" value="Apply for training" style="text;html=1;strokeColor=none;fillColor=none;align=center;verticalAlign=middle;whiteSpace=wrap;rounded=0;" vertex="1" parent="1">
          <mxGeometry x="719.5" y="700" width="115" height="30" as="geometry" />
        </mxCell>
        <mxCell id="ZWJlT0OQoJkOd2MEm67g-20" value="" style="rounded=0;whiteSpace=wrap;html=1;" vertex="1" parent="1">
          <mxGeometry x="347.5" y="770" width="20" height="90" as="geometry" />
        </mxCell>
        <mxCell id="ZWJlT0OQoJkOd2MEm67g-21" value="" style="endArrow=classic;html=1;rounded=0;entryX=-0.095;entryY=0.085;entryDx=0;entryDy=0;entryPerimeter=0;" edge="1" parent="1">
          <mxGeometry width="50" height="50" relative="1" as="geometry">
            <mxPoint x="374.5" y="785" as="sourcePoint" />
            <mxPoint x="650.5" y="785" as="targetPoint" />
          </mxGeometry>
        </mxCell>
        <mxCell id="ZWJlT0OQoJkOd2MEm67g-22" value="" style="endArrow=classic;html=1;rounded=0;entryX=-0.075;entryY=0.106;entryDx=0;entryDy=0;entryPerimeter=0;" edge="1" parent="1">
          <mxGeometry width="50" height="50" relative="1" as="geometry">
            <mxPoint x="672" y="785" as="sourcePoint" />
            <mxPoint x="898" y="785" as="targetPoint" />
          </mxGeometry>
        </mxCell>
        <mxCell id="ZWJlT0OQoJkOd2MEm67g-23" value="" style="endArrow=block;dashed=1;endFill=0;endSize=12;html=1;rounded=0;entryX=1;entryY=0.75;entryDx=0;entryDy=0;" edge="1" parent="1">
          <mxGeometry width="160" relative="1" as="geometry">
            <mxPoint x="644" y="827" as="sourcePoint" />
            <mxPoint x="372" y="825" as="targetPoint" />
          </mxGeometry>
        </mxCell>
        <mxCell id="ZWJlT0OQoJkOd2MEm67g-24" value="" style="endArrow=block;dashed=1;endFill=0;endSize=12;html=1;rounded=0;" edge="1" parent="1">
          <mxGeometry width="160" relative="1" as="geometry">
            <mxPoint x="894.5" y="825" as="sourcePoint" />
            <mxPoint x="674.5" y="825" as="targetPoint" />
          </mxGeometry>
        </mxCell>
        <mxCell id="ZWJlT0OQoJkOd2MEm67g-25" value="upload selected student details" style="text;html=1;strokeColor=none;fillColor=none;align=center;verticalAlign=middle;whiteSpace=wrap;rounded=0;" vertex="1" parent="1">
          <mxGeometry x="459.5" y="750" width="110" height="30" as="geometry" />
        </mxCell>
        <mxCell id="ZWJlT0OQoJkOd2MEm67g-27" value="Aknowledgement" style="text;html=1;strokeColor=none;fillColor=none;align=center;verticalAlign=middle;whiteSpace=wrap;rounded=0;" vertex="1" parent="1">
          <mxGeometry x="727.5" y="800" width="90" height="30" as="geometry" />
        </mxCell>
        <mxCell id="ZWJlT0OQoJkOd2MEm67g-32" value="view selected student details" style="text;html=1;strokeColor=none;fillColor=none;align=center;verticalAlign=middle;whiteSpace=wrap;rounded=0;" vertex="1" parent="1">
          <mxGeometry x="435" y="850" width="175" height="30" as="geometry" />
        </mxCell>
        <mxCell id="ZWJlT0OQoJkOd2MEm67g-34" value="view selected student details" style="text;html=1;strokeColor=none;fillColor=none;align=center;verticalAlign=middle;whiteSpace=wrap;rounded=0;" vertex="1" parent="1">
          <mxGeometry x="695" y="850" width="160" height="30" as="geometry" />
        </mxCell>
        <mxCell id="ZWJlT0OQoJkOd2MEm67g-35" value="" style="endArrow=classic;html=1;rounded=0;" edge="1" parent="1">
          <mxGeometry width="50" height="50" relative="1" as="geometry">
            <mxPoint x="891.25" y="879" as="sourcePoint" />
            <mxPoint x="671.25" y="879" as="targetPoint" />
          </mxGeometry>
        </mxCell>
        <mxCell id="ZWJlT0OQoJkOd2MEm67g-36" value="" style="endArrow=classic;html=1;rounded=0;" edge="1" parent="1">
          <mxGeometry width="50" height="50" relative="1" as="geometry">
            <mxPoint x="640" y="880" as="sourcePoint" />
            <mxPoint x="105" y="880" as="targetPoint" />
          </mxGeometry>
        </mxCell>
        <mxCell id="ZWJlT0OQoJkOd2MEm67g-37" value="Get Reg form" style="text;html=1;strokeColor=none;fillColor=none;align=center;verticalAlign=middle;whiteSpace=wrap;rounded=0;" vertex="1" parent="1">
          <mxGeometry x="712.5" y="480" width="115" height="30" as="geometry" />
        </mxCell>
        <mxCell id="ZWJlT0OQoJkOd2MEm67g-38" value="" style="endArrow=none;dashed=1;html=1;dashPattern=1 3;strokeWidth=2;rounded=0;exitX=0.5;exitY=1;exitDx=0;exitDy=0;entryX=0.5;entryY=0;entryDx=0;entryDy=0;" edge="1" parent="1" source="ZJuprJjKFpUztYn6lgFH-16" target="ZJuprJjKFpUztYn6lgFH-32">
          <mxGeometry width="50" height="50" relative="1" as="geometry">
            <mxPoint x="620" y="590" as="sourcePoint" />
            <mxPoint x="658" y="420" as="targetPoint" />
          </mxGeometry>
        </mxCell>
        <mxCell id="ZWJlT0OQoJkOd2MEm67g-39" value="" style="endArrow=none;dashed=1;html=1;dashPattern=1 3;strokeWidth=2;rounded=0;exitX=0.5;exitY=1;exitDx=0;exitDy=0;entryX=0.5;entryY=0;entryDx=0;entryDy=0;exitPerimeter=0;" edge="1" parent="1" source="ZJuprJjKFpUztYn6lgFH-12" target="ZWJlT0OQoJkOd2MEm67g-1">
          <mxGeometry width="50" height="50" relative="1" as="geometry">
            <mxPoint x="620" y="590" as="sourcePoint" />
            <mxPoint x="670" y="540" as="targetPoint" />
          </mxGeometry>
        </mxCell>
        <mxCell id="ZWJlT0OQoJkOd2MEm67g-42" value="" style="endArrow=none;dashed=1;html=1;dashPattern=1 3;strokeWidth=2;rounded=0;entryX=0.5;entryY=0;entryDx=0;entryDy=0;" edge="1" parent="1" target="ZWJlT0OQoJkOd2MEm67g-20">
          <mxGeometry width="50" height="50" relative="1" as="geometry">
            <mxPoint x="357" y="630" as="sourcePoint" />
            <mxPoint x="360" y="760" as="targetPoint" />
          </mxGeometry>
        </mxCell>
        <mxCell id="ZWJlT0OQoJkOd2MEm67g-43" value="" style="endArrow=none;dashed=1;html=1;dashPattern=1 3;strokeWidth=2;rounded=0;entryX=0.5;entryY=1;entryDx=0;entryDy=0;exitX=0.5;exitY=0;exitDx=0;exitDy=0;exitPerimeter=0;" edge="1" parent="1" source="ZJuprJjKFpUztYn6lgFH-16" target="ZJuprJjKFpUztYn6lgFH-3">
          <mxGeometry width="50" height="50" relative="1" as="geometry">
            <mxPoint x="658" y="150" as="sourcePoint" />
            <mxPoint x="670" y="150" as="targetPoint" />
          </mxGeometry>
        </mxCell>
        <mxCell id="ZWJlT0OQoJkOd2MEm67g-44" value="" style="endArrow=none;dashed=1;html=1;dashPattern=1 3;strokeWidth=2;rounded=0;entryX=0.5;entryY=1;entryDx=0;entryDy=0;exitX=0.5;exitY=0;exitDx=0;exitDy=0;exitPerimeter=0;" edge="1" parent="1">
          <mxGeometry width="50" height="50" relative="1" as="geometry">
            <mxPoint x="907" y="160" as="sourcePoint" />
            <mxPoint x="907" y="130" as="targetPoint" />
          </mxGeometry>
        </mxCell>
        <mxCell id="ZWJlT0OQoJkOd2MEm67g-45" value="" style="endArrow=none;dashed=1;html=1;dashPattern=1 3;strokeWidth=2;rounded=0;entryX=0.5;entryY=1;entryDx=0;entryDy=0;exitX=0.5;exitY=0;exitDx=0;exitDy=0;exitPerimeter=0;" edge="1" parent="1">
          <mxGeometry width="50" height="50" relative="1" as="geometry">
            <mxPoint x="357" y="160" as="sourcePoint" />
            <mxPoint x="357" y="130" as="targetPoint" />
          </mxGeometry>
        </mxCell>
        <mxCell id="ZWJlT0OQoJkOd2MEm67g-46" value="" style="endArrow=none;dashed=1;html=1;dashPattern=1 3;strokeWidth=2;rounded=0;entryX=0.5;entryY=1;entryDx=0;entryDy=0;exitX=0.5;exitY=0;exitDx=0;exitDy=0;exitPerimeter=0;" edge="1" parent="1">
          <mxGeometry width="50" height="50" relative="1" as="geometry">
            <mxPoint x="94.5" y="160" as="sourcePoint" />
            <mxPoint x="94.5" y="130" as="targetPoint" />
          </mxGeometry>
        </mxCell>
        <mxCell id="ZWJlT0OQoJkOd2MEm67g-51" value="Store to database" style="text;html=1;strokeColor=none;fillColor=none;align=center;verticalAlign=middle;whiteSpace=wrap;rounded=0;" vertex="1" parent="1">
          <mxGeometry x="725" y="560" width="110" height="30" as="geometry" />
        </mxCell>
        <mxCell id="ZWJlT0OQoJkOd2MEm67g-52" value="Store to database" style="text;html=1;strokeColor=none;fillColor=none;align=center;verticalAlign=middle;whiteSpace=wrap;rounded=0;" vertex="1" parent="1">
          <mxGeometry x="724.5" y="750" width="110" height="30" as="geometry" />
        </mxCell>
        <mxCell id="ZWJlT0OQoJkOd2MEm67g-53" value="" style="endArrow=none;dashed=1;html=1;dashPattern=1 3;strokeWidth=2;rounded=0;entryX=0.5;entryY=1;entryDx=0;entryDy=0;exitX=0.5;exitY=0;exitDx=0;exitDy=0;exitPerimeter=0;" edge="1" parent="1">
          <mxGeometry width="50" height="50" relative="1" as="geometry">
            <mxPoint x="94.5" y="920" as="sourcePoint" />
            <mxPoint x="94.5" y="890" as="targetPoint" />
          </mxGeometry>
        </mxCell>
        <mxCell id="ZWJlT0OQoJkOd2MEm67g-55" value="" style="endArrow=none;dashed=1;html=1;dashPattern=1 3;strokeWidth=2;rounded=0;entryX=0.5;entryY=1;entryDx=0;entryDy=0;exitX=0.5;exitY=0;exitDx=0;exitDy=0;exitPerimeter=0;" edge="1" parent="1">
          <mxGeometry width="50" height="50" relative="1" as="geometry">
            <mxPoint x="907" y="930" as="sourcePoint" />
            <mxPoint x="907" y="900" as="targetPoint" />
          </mxGeometry>
        </mxCell>
        <mxCell id="ZWJlT0OQoJkOd2MEm67g-56" value="" style="endArrow=none;dashed=1;html=1;dashPattern=1 3;strokeWidth=2;rounded=0;entryX=0.5;entryY=1;entryDx=0;entryDy=0;" edge="1" parent="1">
          <mxGeometry width="50" height="50" relative="1" as="geometry">
            <mxPoint x="657" y="920" as="sourcePoint" />
            <mxPoint x="657" y="900" as="targetPoint" />
          </mxGeometry>
        </mxCell>
        <mxCell id="ZWJlT0OQoJkOd2MEm67g-57" value="" style="endArrow=none;dashed=1;html=1;dashPattern=1 3;strokeWidth=2;rounded=0;" edge="1" parent="1">
          <mxGeometry width="50" height="50" relative="1" as="geometry">
            <mxPoint x="358" y="860" as="sourcePoint" />
            <mxPoint x="358" y="920" as="targetPoint" />
          </mxGeometry>
        </mxCell>
        <mxCell id="ZWJlT0OQoJkOd2MEm67g-58" value="Request Placement Reg form" style="text;html=1;strokeColor=none;fillColor=none;align=center;verticalAlign=middle;whiteSpace=wrap;rounded=0;" vertex="1" parent="1">
          <mxGeometry x="680" y="450" width="185" height="30" as="geometry" />
        </mxCell>
        <mxCell id="ZWJlT0OQoJkOd2MEm67g-62" value="Get Reg form" style="text;html=1;strokeColor=none;fillColor=none;align=center;verticalAlign=middle;whiteSpace=wrap;rounded=0;" vertex="1" parent="1">
          <mxGeometry x="725" y="670" width="115" height="30" as="geometry" />
        </mxCell>
      </root>
    </mxGraphModel>
  </diagram>
</mxfile>
